<svg width="385" height="128" viewBox="0 0 385 128" fill="none" xmlns="http://www.w3.org/2000/svg">
<g id="logo_full">
<g id="vector4">
<path d="M176.081 79.5968L171.178 84.3172C167.843 80.7664 164.091 78.991 159.922 78.991C156.404 78.991 153.436 80.2027 151.018 82.626C148.617 85.0493 147.416 88.0363 147.416 91.5871C147.416 94.0609 147.95 96.257 149.017 98.1755C150.084 100.094 151.593 101.6 153.544 102.694C155.495 103.788 157.663 104.335 160.048 104.335C162.082 104.335 163.941 103.956 165.625 103.199C167.31 102.425 169.161 101.028 171.178 99.0085L175.931 104.007C173.213 106.682 170.645 108.542 168.227 109.585C165.809 110.612 163.049 111.125 159.947 111.125C154.228 111.125 149.542 109.299 145.89 105.647C142.255 101.979 140.438 97.2836 140.438 91.5619C140.438 87.8596 141.263 84.5697 142.914 81.692C144.581 78.8143 146.958 76.5004 150.042 74.7502C153.144 73.0001 156.479 72.125 160.048 72.125C163.082 72.125 166.001 72.7729 168.802 74.0687C171.62 75.3645 174.046 77.2072 176.081 79.5968Z" fill="#0076CB"/>
<path d="M199.618 72.125C204.82 72.125 209.289 74.0266 213.025 77.8299C216.777 81.6331 218.653 86.2693 218.653 91.7386C218.653 97.1574 216.802 101.743 213.1 105.496C209.415 109.249 204.937 111.125 199.668 111.125C194.148 111.125 189.563 109.198 185.911 105.344C182.259 101.491 180.433 96.9133 180.433 91.6124C180.433 88.0616 181.283 84.7968 182.984 81.8182C184.685 78.8396 187.02 76.4836 189.988 74.7502C192.973 73.0001 196.183 72.125 199.618 72.125ZM199.543 79.0415C196.141 79.0415 193.281 80.2363 190.963 82.626C188.646 85.0156 187.487 88.0532 187.487 91.7386C187.487 95.8447 188.946 99.0926 191.864 101.482C194.132 103.35 196.733 104.284 199.668 104.284C202.986 104.284 205.813 103.073 208.147 100.649C210.482 98.226 211.649 95.2389 211.649 91.6881C211.649 88.1541 210.473 85.1671 208.122 82.7269C205.771 80.27 202.911 79.0415 199.543 79.0415Z" fill="#0076CB"/>
<path d="M225.281 73.059H231.984L247.767 97.4939V73.059H254.771V110.191H248.043L232.285 85.8318V110.191H225.281V73.059Z" fill="#0076CB"/>
<path d="M263.2 73.059H269.904L285.687 97.4939V73.059H292.691V110.191H285.962L270.204 85.8318V110.191H263.2V73.059Z" fill="#0076CB"/>
<path d="M301.12 73.059H321.205V79.9755H308.073V86.69H321.205V93.4803H308.073V103.249H321.205V110.191H301.12V73.059Z" fill="#0076CB"/>
<path d="M361.576 79.5968L356.673 84.3172C353.338 80.7664 349.586 78.991 345.418 78.991C341.899 78.991 338.931 80.2027 336.513 82.626C334.112 85.0493 332.911 88.0363 332.911 91.5871C332.911 94.0609 333.445 96.257 334.512 98.1755C335.579 100.094 337.088 101.6 339.039 102.694C340.99 103.788 343.158 104.335 345.543 104.335C347.577 104.335 349.436 103.956 351.12 103.199C352.805 102.425 354.656 101.028 356.673 99.0085L361.426 104.007C358.708 106.682 356.14 108.542 353.722 109.585C351.304 110.612 348.544 111.125 345.443 111.125C339.723 111.125 335.037 109.299 331.385 105.647C327.75 101.979 325.933 97.2836 325.933 91.5619C325.933 87.8596 326.758 84.5697 328.409 81.692C330.076 78.8143 332.453 76.5004 335.537 74.7502C338.639 73.0001 341.974 72.125 345.543 72.125C348.577 72.125 351.496 72.7729 354.297 74.0687C357.115 75.3645 359.541 77.2072 361.576 79.5968Z" fill="#0076CB"/>
<path d="M364.102 73.059H384.438V80.026H377.734V110.191H370.63V80.026H364.102V73.059Z" fill="#0076CB"/>
</g>
<g id="vector3">
<path d="M158.41 18.1562H148.283L140 66.125H150.56L155.056 40.1829L163.685 66.125H172.843L181.586 40.1758L185.999 66.125H196.464L188.377 18.1562H178.375L168.319 48.0606L158.41 18.1562Z" fill="#014165"/>
<path fill-rule="evenodd" clip-rule="evenodd" d="M228.437 18.1562H201.344V66.125H228.437V55.5312H212.031V45.4375H228.437V35.0312H212.031V28.7188H228.437V18.1562Z" fill="#014165"/>
<path fill-rule="evenodd" clip-rule="evenodd" d="M246.031 18.1562H234.656V66.125H246.187C252.147 66.125 256.471 65.7543 259.046 64.9551C261.626 64.1544 263.996 62.7143 266.156 60.6643C268.356 58.5952 270.058 56.0104 271.273 52.9328C272.512 49.8241 273.125 46.4365 273.125 42.7812C273.125 37.6582 272.041 33.1293 269.84 29.2273C267.656 25.3578 264.846 22.5152 261.392 20.7653C257.927 18.9892 252.765 18.1562 246.031 18.1562ZM256.674 54.2951L256.669 54.2973C255.1 55.1004 252.406 55.5625 248.437 55.5625H245.375V28.5938H247.344C252.665 28.5938 256.298 29.7807 258.486 31.9313C260.976 34.383 262.281 37.8785 262.281 42.5625C262.281 45.6124 261.729 48.1083 260.678 50.095C259.609 52.1173 258.266 53.4898 256.674 54.2951Z" fill="#014165"/>
<path d="M289.5 18.1562H278.812V66.125H289.5V18.1562Z" fill="#014165"/>
<path d="M308.281 18.1562H297.437V66.125H308.281V47.9089L320.946 66.125H333.752L315.46 39.6931L332.335 18.1562H319.265L308.281 32.0856V18.1562Z" fill="#014165"/>
<path fill-rule="evenodd" clip-rule="evenodd" d="M384.562 42.2812C384.562 35.2516 382.118 29.2567 377.24 24.357C372.39 19.4644 366.553 17 359.781 17C355.312 17 351.129 18.1303 347.248 20.3849C343.39 22.618 340.347 25.6603 338.134 29.5007C335.918 33.3452 334.812 37.5599 334.812 42.125C334.812 48.9467 337.194 54.8605 341.934 59.8162C346.694 64.7939 352.689 67.2812 359.844 67.2812C366.691 67.2812 372.541 64.8537 377.334 60.018C382.15 55.1799 384.562 49.2471 384.562 42.2812ZM350.726 53.569L350.724 53.5672C347.333 50.816 345.625 47.0917 345.625 42.2812C345.625 37.951 346.99 34.4511 349.683 31.6995C352.385 28.939 355.698 27.5625 359.687 27.5625C363.623 27.5625 366.937 28.9721 369.687 31.8197L369.689 31.8221C372.438 34.6485 373.812 38.093 373.812 42.2188C373.812 46.3688 372.446 49.8123 369.72 52.6154C366.99 55.4238 363.717 56.8125 359.844 56.8125C356.407 56.8125 353.38 55.7354 350.726 53.569Z" fill="#014165"/>
</g>
<path id="vector2" d="M107.378 91.7409L105.841 93.529C95.3539 105.731 82.1479 111.919 66.5904 111.919C52.426 111.919 40.5488 107.338 31.2866 98.3025C22.0427 89.2852 17.358 77.8643 17.358 64.3582C17.358 55.4022 19.4554 47.2422 23.5889 40.1018C27.7195 32.9706 33.6289 27.202 41.1551 22.9612C48.6996 18.7113 57.0158 16.5588 65.8739 16.5588C74.0002 16.5588 81.5478 18.203 88.3116 21.4456C95.0569 24.682 100.927 29.5107 105.755 35.7968L107.283 37.7839L120.437 27.6919L119.013 25.717C113.171 17.6182 105.575 11.2341 96.4317 6.74232C87.3134 2.26887 76.9764 0 65.7116 0C47.0248 0 31.2376 6.14525 18.7879 18.2643C6.32284 30.3986 0 45.5612 0 63.3233C0 80.1577 5.21137 94.7416 15.4994 106.677C27.7746 120.826 44.7222 128 65.8708 128C76.9611 128 87.1603 125.872 96.1806 121.677C105.232 117.47 112.889 111.426 118.946 103.719L120.523 101.714L107.378 91.7409Z" fill="url(#paint0_linear_201_3)"/>
<path id="vector1" d="M83.5932 70.378V26.4365C83.5932 24.2564 82.0591 22.3764 79.925 21.9386C77.7878 21.5007 75.6383 22.6244 74.781 24.63L52.3188 77.0437V37.5819C52.3188 35.3742 50.7481 33.4789 48.5802 33.0686C46.4124 32.6583 44.2568 33.8494 43.4515 35.9039L30.2149 69.6584H0.25415C0.511351 72.8091 0.964513 75.871 1.61364 78.8441H33.3411C35.2303 78.8441 36.9266 77.6867 37.6155 75.9292L43.127 61.875V99.4171C43.127 101.597 44.661 103.477 46.7952 103.915C47.1044 103.979 47.4137 104.01 47.7198 104.01C49.5264 104.01 51.2043 102.938 51.9392 101.227L74.4013 48.8129V74.9708C74.4013 77.5061 76.4589 79.5637 78.9942 79.5637H120.52V70.378H83.587H83.5932Z" fill="#014165"/>
</g>
<defs>
<linearGradient id="paint0_linear_201_3" x1="120.5" y1="46.25" x2="-4.23494e-06" y2="99.375" gradientUnits="userSpaceOnUse">
<stop stop-color="#0076CB"/>
<stop offset="1" stop-color="#3CE1F8"/>
</linearGradient>
</defs>
</svg>
