<svg version="1.1" id="Layer_1" xmlns="http://www.w3.org/2000/svg" xmlns:xlink="http://www.w3.org/1999/xlink" viewBox="0 0 512 512" xml:space="preserve" width="77px" height="77px" fill="#000000"><g id="SVGRepo_bgCarrier" stroke-width="0"></g><g id="SVGRepo_tracerCarrier" stroke-linecap="round" stroke-linejoin="round"></g><g id="SVGRepo_iconCarrier"> <path style="fill:#C4DF64;" d="M493.294,315.858H95.666V157.662c0-35.42,28.714-64.134,64.134-64.134h269.361 c35.42,0,64.134,28.714,64.134,64.134V315.858z"></path> <path style="fill:#D8ED8C;" d="M429.161,93.528H159.8c-34.345,0-62.382,26.997-64.052,60.927h397.466 C491.542,120.525,463.505,93.528,429.161,93.528z"></path> <path style="fill:#999999;" d="M95.666,315.858H275.24V157.662c0-35.42-28.714-64.134-64.134-64.134H159.8 c-35.42,0-64.134,28.714-64.134,64.134V315.858z"></path> <path style="fill:#CCCCCC;" d="M202.555,93.528H159.8c-35.42,0-64.134,28.714-64.134,64.134v158.196h42.756V157.662 C138.422,122.242,167.135,93.528,202.555,93.528z"></path> <rect x="52.91" y="187.591" style="fill:#FAFAFA;" width="188.125" height="128.267"></rect> <path style="fill:#E5E5E5;" d="M241.035,213.244l-88.986,72.807c-2.953,2.416-7.2,2.416-10.153,0L52.91,213.244v-25.653h188.125 V213.244z"></path> <polygon style="fill:#FAFAFA;" points="52.91,187.591 146.973,264.551 241.035,187.591 "></polygon> <rect x="275.24" y="315.858" style="fill:#FFD791;" width="85.511" height="188.125"></rect> <rect x="241.035" y="315.858" style="fill:#F8BE73;" width="34.205" height="188.125"></rect> <path style="fill:#FF8C78;" d="M360.752,8.017v162.472h0.43c-0.28,1.382-0.43,2.811-0.43,4.276c0,11.807,9.571,21.378,21.378,21.378 c11.807,0,21.378-9.571,21.378-21.378c0-1.464-0.149-2.893-0.43-4.276h0.43V50.772l34.205-17.102V8.017H360.752z"></path> <path style="fill:#DF7A6E;" d="M377.854,174.764c0-1.464,0.149-2.893,0.43-4.276h-0.43V8.017h-17.102v162.472h0.43 c-0.28,1.382-0.43,2.811-0.43,4.276c0,11.807,9.571,21.378,21.378,21.378c3.042,0,5.931-0.646,8.551-1.79 C383.133,191.051,377.854,183.528,377.854,174.764z"></path> <path d="M429.161,85.511h-17.637V55.727l29.773-14.886c2.716-1.357,4.432-4.133,4.432-7.17V8.017c0-4.428-3.589-8.017-8.017-8.017 h-76.96c-4.427,0-8.017,3.588-8.017,8.017v77.495H159.8c-39.784,0-72.15,32.366-72.15,72.15v21.912H52.91 c-4.355,0-8.017,3.662-8.017,8.017v120.251H26.722v-17.637c0-4.428-3.589-8.017-8.017-8.017s-8.017,3.588-8.017,8.017v25.653 c0,4.428,3.589,8.017,8.017,8.017h214.313v26.188c0,4.428,3.589,8.017,8.017,8.017s8.017-3.588,8.017-8.017v-26.188h18.171v172.092 h-18.171V392.818c0-4.428-3.589-8.017-8.017-8.017s-8.017,3.588-8.017,8.017v111.165c0,4.428,3.589,8.017,8.017,8.017h119.716 c4.427,0,8.017-3.588,8.017-8.017V323.875h124.526c4.427,0,8.017-3.588,8.017-8.017V157.662 C501.311,117.878,468.945,85.511,429.161,85.511z M368.768,16.033h60.927v12.682l-29.773,14.886 c-2.716,1.359-4.432,4.133-4.432,7.17v123.992c0,7.368-5.993,13.361-13.361,13.361s-13.361-5.993-13.361-13.361V16.033z M218.577,195.608l-71.604,58.586l-71.604-58.586H218.577z M60.927,204.508l80.969,66.248c2.919,2.387,7.234,2.387,10.153,0 l80.97-66.248v103.333H60.927V204.508z M352.735,495.967h-9.62v-43.29c0-4.428-3.589-8.017-8.017-8.017 c-4.427,0-8.017,3.588-8.017,8.017v43.29h-43.825V323.875h43.825v86.046c0,4.428,3.589,8.017,8.017,8.017 c4.427,0,8.017-3.588,8.017-8.017v-86.046h9.62V495.967z M485.278,307.841H283.257v-86.046c0-4.428-3.589-8.017-8.017-8.017 c-4.427,0-8.017,3.588-8.017,8.017v86.046h-18.171V187.591c0-4.355-3.662-8.017-8.017-8.017H103.683v-21.912 c0-30.942,25.174-56.117,56.117-56.117h51.307c30.943,0,56.117,25.175,56.117,56.117v21.378c0,4.428,3.589,8.017,8.017,8.017 c4.427,0,8.017-3.588,8.017-8.017v-21.378c0-22.647-10.497-42.88-26.871-56.117h96.349v73.219c0,16.208,13.186,29.395,29.395,29.395 c16.209,0,29.395-13.187,29.395-29.395v-73.219h17.637c30.943,0,56.117,25.175,56.117,56.117V307.841z"></path> <path d="M300.894,342.046c-4.427,0-8.017,3.588-8.017,8.017v94.063c0,4.428,3.589,8.017,8.017,8.017 c4.427,0,8.017-3.588,8.017-8.017v-94.063C308.91,345.634,305.321,342.046,300.894,342.046z"></path> <path d="M382.129,178.505c4.427,0,8.017-3.588,8.017-8.017v-8.551c0-4.428-3.589-8.017-8.017-8.017 c-4.427,0-8.017,3.588-8.017,8.017v8.551C374.113,174.917,377.702,178.505,382.129,178.505z"></path> </g></svg>