<svg width="64" height="83" viewBox="0 0 64 83" fill="none" xmlns="http://www.w3.org/2000/svg">
<path d="M54 15.5625H10C6.6863 15.5625 4 19.0463 4 23.3438V59.6562C4 63.9538 6.6863 67.4375 10 67.4375H54C57.3138 67.4375 60 63.9538 60 59.6562V23.3438C60 19.0463 57.3138 15.5625 54 15.5625Z" fill="#0C86E4"/>
<path d="M32 15.5625V67.4375H10C8.4087 67.4375 6.88258 66.6176 5.75736 65.1584C4.63214 63.6991 4 61.7198 4 59.6562V23.3438C4 21.28 4.63214 19.3008 5.75736 17.8416C6.88258 16.3823 8.4087 15.5625 10 15.5625H32Z" fill="#0C86E4"/>
<path d="M24 15.5625V51.875C24 52.5629 23.7892 53.2227 23.4142 53.709C23.0392 54.1954 22.5304 54.4688 22 54.4688C21.4696 54.4688 20.9608 54.1954 20.5858 53.709C20.2108 53.2227 20 52.5629 20 51.875V15.5625H24Z" fill="#F5F5F5"/>
<path d="M50 33.7188H40C39.4696 33.7188 38.9608 33.4454 38.5858 32.959C38.2108 32.4727 38 31.8129 38 31.125C38 30.4371 38.2108 29.7773 38.5858 29.291C38.9608 28.8046 39.4696 28.5312 40 28.5312H50C50.5304 28.5312 51.0392 28.8046 51.4142 29.291C51.7892 29.7773 52 30.4371 52 31.125C52 31.8129 51.7892 32.4727 51.4142 32.959C51.0392 33.4454 50.5304 33.7188 50 33.7188Z" fill="#E0E0E0"/>
<path d="M50 44.0938H44C43.4696 44.0938 42.9608 43.8204 42.5858 43.334C42.2108 42.8477 42 42.1879 42 41.5C42 40.8121 42.2108 40.1523 42.5858 39.666C42.9608 39.1796 43.4696 38.9062 44 38.9062H50C50.5304 38.9062 51.0392 39.1796 51.4142 39.666C51.7892 40.1523 52 40.8121 52 41.5C52 42.1879 51.7892 42.8477 51.4142 43.334C51.0392 43.8204 50.5304 44.0938 50 44.0938Z" fill="#E0E0E0"/>
<path d="M50 54.4688H40C39.4696 54.4688 38.9608 54.1954 38.5858 53.709C38.2108 53.2227 38 52.5629 38 51.875C38 51.1871 38.2108 50.5273 38.5858 50.041C38.9608 49.5546 39.4696 49.2812 40 49.2812H50C50.5304 49.2812 51.0392 49.5546 51.4142 50.041C51.7892 50.5273 52 51.1871 52 51.875C52 52.5629 51.7892 53.2227 51.4142 53.709C51.0392 54.1954 50.5304 54.4688 50 54.4688Z" fill="#E0E0E0"/>
<path d="M54 15.5625H10C8.4087 15.5625 6.88258 16.3823 5.75736 17.8416C4.63214 19.3008 4 21.28 4 23.3438V59.6562C4 61.7198 4.63214 63.6991 5.75736 65.1584C6.88258 66.6176 8.4087 67.4375 10 67.4375H54C55.5912 67.4375 57.1174 66.6176 58.2426 65.1584C59.3678 63.6991 60 61.7198 60 59.6562V23.3438C60 21.28 59.3678 19.3008 58.2426 17.8416C57.1174 16.3823 55.5912 15.5625 54 15.5625ZM8 59.6562V23.3438C8 22.6558 8.21072 21.9961 8.58578 21.5097C8.96086 21.0233 9.46956 20.75 10 20.75H30V62.25H10C9.46956 62.25 8.96086 61.9766 8.58578 61.4903C8.21072 61.004 8 60.3441 8 59.6562ZM56 59.6562C56 60.3441 55.7892 61.004 55.4142 61.4903C55.0392 61.9766 54.5304 62.25 54 62.25H34V20.75H54C54.5304 20.75 55.0392 21.0233 55.4142 21.5097C55.7892 21.9961 56 22.6558 56 23.3438V59.6562Z" fill="#263238"/>
</svg>
