<svg width="71" height="71" viewBox="0 0 71 71" fill="none" xmlns="http://www.w3.org/2000/svg">
<path d="M35.5 71C55.1061 71 71 55.1061 71 35.5C71 15.8939 55.1061 0 35.5 0C15.8939 0 0 15.8939 0 35.5C0 55.1061 15.8939 71 35.5 71Z" fill="#F19C35"/>
<g opacity="0.8">
<path d="M23.4208 26.1383V22.1249H22.7512V21.5755C22.9398 21.5534 23.1193 21.4821 23.2898 21.3614C23.4606 21.2411 23.583 21.0949 23.6579 20.9223H24.2072V26.1383H23.4208Z" fill="#BABCBE"/>
<path d="M24.8639 22.3948C24.8639 21.9012 24.9971 21.524 25.2632 21.2636C25.4928 21.0335 25.7952 20.9184 26.1698 20.9184C26.5137 20.9184 26.807 21.0473 27.0492 21.3051C27.2924 21.5634 27.4135 21.864 27.4135 22.2079C27.4135 22.5626 27.3343 22.9052 27.1764 23.2353C27.0903 23.4182 26.8892 23.7327 26.573 24.1796C26.4873 24.3016 26.3597 24.4915 26.1902 24.7493L26.0491 24.9612C25.9574 25.0996 25.8882 25.2091 25.8411 25.2896C25.819 25.3311 25.8078 25.3557 25.8078 25.3648H27.3507V26.1339H24.8513V25.4128C24.8513 25.3964 24.9084 25.3004 25.0226 25.1256C25.0754 25.0451 25.1355 24.9565 25.2022 24.86L25.4072 24.565C25.5262 24.4015 25.7139 24.1398 25.9691 23.7794C26.2109 23.4412 26.3913 23.1349 26.5107 22.8606C26.608 22.6357 26.6565 22.4268 26.6565 22.2326C26.6565 22.0747 26.6119 21.9401 26.5232 21.8294C26.4259 21.7126 26.3013 21.6546 26.1491 21.6546C25.9297 21.6546 25.7749 21.7809 25.6832 22.0331C25.6529 22.1162 25.6378 22.2161 25.6378 22.3325V22.5323H24.8639V22.3948Z" fill="#BABCBE"/>
<path d="M27.9663 22.3948C27.9663 21.9012 28.0995 21.524 28.3656 21.2636C28.5953 21.0335 28.8976 20.9184 29.2722 20.9184C29.6161 20.9184 29.9094 21.0473 30.1517 21.3051C30.3948 21.5634 30.5159 21.864 30.5159 22.2079C30.5159 22.5626 30.4367 22.9052 30.2788 23.2353C30.1928 23.4182 29.9916 23.7327 29.6754 24.1796C29.5897 24.3016 29.4621 24.4915 29.2926 24.7493L29.1516 24.9612C29.0598 25.0996 28.9906 25.2091 28.9435 25.2896C28.9214 25.3311 28.9102 25.3557 28.9102 25.3648H30.4532V26.1339H27.9538V25.4128C27.9538 25.3964 28.0109 25.3004 28.1251 25.1256C28.1778 25.0451 28.238 24.9565 28.3046 24.86L28.5096 24.565C28.6286 24.4015 28.8163 24.1398 29.0715 23.7794C29.3133 23.4412 29.4937 23.1349 29.6131 22.8606C29.7104 22.6357 29.7589 22.4268 29.7589 22.2326C29.7589 22.0747 29.7143 21.9401 29.6257 21.8294C29.5283 21.7126 29.4037 21.6546 29.2515 21.6546C29.0322 21.6546 28.8773 21.7809 28.7856 22.0331C28.7553 22.1162 28.7402 22.2161 28.7402 22.3325V22.5323H27.9667L27.9663 22.3948Z" fill="#BABCBE"/>
<path d="M27.6042 27.9456V28.7354L26.502 33.1607H25.7308L26.833 28.7354H25.242V27.9456H27.6042Z" fill="#BABCBE"/>
<path d="M29.3306 27.8833C29.6745 27.8833 29.96 28.0079 30.1871 28.2574C30.4064 28.4962 30.5159 28.7873 30.5159 29.1312V31.9758C30.5159 32.3228 30.4026 32.6161 30.1772 32.8574C29.9514 33.0988 29.6689 33.2195 29.3306 33.2195C28.9837 33.2195 28.6982 33.0962 28.4741 32.8496C28.2548 32.6109 28.1454 32.3197 28.1454 31.9758V31.8634H28.9608V31.9927C28.9608 32.1199 28.9945 32.2267 29.0624 32.3128C29.1304 32.3985 29.2268 32.4417 29.3514 32.4417C29.4764 32.4417 29.5729 32.3985 29.6408 32.3128C29.7083 32.2267 29.7424 32.1199 29.7424 31.9927V30.9485C29.5595 31.1124 29.3609 31.1938 29.1477 31.1938C28.8038 31.1938 28.5455 31.0735 28.3738 30.8321C28.2211 30.6215 28.1454 30.3273 28.1454 29.9501V29.056H28.1497C28.1605 28.8146 28.2293 28.5979 28.3556 28.4054C28.4819 28.2125 28.6532 28.0693 28.8695 27.975C29.0101 27.9135 29.1641 27.8833 29.3306 27.8833ZM29.7424 29.139C29.7424 29.0119 29.7083 28.9041 29.6408 28.8168C29.5729 28.7298 29.4764 28.6857 29.3514 28.6857C29.2268 28.6857 29.1304 28.7298 29.0624 28.8168C28.9945 28.9041 28.9608 29.0119 28.9608 29.139V30.1041C28.9608 30.2568 29.0162 30.3827 29.1273 30.4826C29.1771 30.5293 29.2506 30.5531 29.3475 30.5531C29.5474 30.5531 29.6719 30.448 29.7217 30.2373C29.7355 30.1737 29.7429 30.1249 29.7429 30.0916L29.7424 29.139Z" fill="#BABCBE"/>
</g>
<path d="M50.3641 55.4948H48.1039V53.2956H50.3641C54.3637 53.2956 57.617 50.0423 57.617 46.0435C57.617 42.0448 54.3637 38.7915 50.3641 38.7915H32.0636V36.5927H50.3641C55.5766 36.5927 59.8158 40.8323 59.8158 46.0435C59.8154 51.2552 55.5762 55.4948 50.3641 55.4948Z" fill="#E0DCD3"/>
<path d="M46.3606 46.6375C46.3606 47.0765 46.0007 47.4364 45.5608 47.4364H17.1753C16.7354 47.4364 16.3755 47.0765 16.3755 46.6375V15.6531C16.3755 15.2132 16.7354 14.8533 17.1753 14.8533H45.5608C46.0007 14.8533 46.3606 15.2132 46.3606 15.6531V46.6375Z" fill="#F7F1E6"/>
<path d="M31.9551 42.9891C31.9551 43.4295 31.5956 43.7894 31.1552 43.7894H20.0865C19.6466 43.7894 19.2871 43.4295 19.2871 42.9891V19.2011C19.2871 18.7611 19.6466 18.4012 20.0865 18.4012H31.1552C31.5956 18.4012 31.9551 18.7611 31.9551 19.2011V42.9891Z" fill="#449F98"/>
<path d="M38.4147 19.9226C38.4147 20.3625 38.0556 20.7224 37.6149 20.7224H34.4164C33.9769 20.7224 33.6166 20.363 33.6166 19.9226V19.2011C33.6166 18.7611 33.9769 18.4012 34.4164 18.4012H37.6149C38.0556 18.4012 38.4147 18.7611 38.4147 19.2011V19.9226Z" fill="#2D324F"/>
<path d="M44.1614 19.9226C44.1614 20.3625 43.8019 20.7224 43.362 20.7224H40.164C39.7241 20.7224 39.3637 20.363 39.3637 19.9226V19.2011C39.3637 18.7611 39.7241 18.4012 40.164 18.4012H43.3625C43.8024 18.4012 44.1619 18.7611 44.1619 19.2011L44.1614 19.9226Z" fill="#2D324F"/>
<path d="M38.4147 23.0635C38.4147 23.5035 38.0556 23.8634 37.6149 23.8634H34.4164C33.9769 23.8634 33.6166 23.5039 33.6166 23.0635V22.342C33.6166 21.9021 33.9769 21.5426 34.4164 21.5426H37.6149C38.0556 21.5426 38.4147 21.9021 38.4147 22.342V23.0635Z" fill="#2D324F"/>
<path d="M44.1614 23.0635C44.1614 23.5035 43.8019 23.8634 43.362 23.8634H40.164C39.7241 23.8634 39.3637 23.5039 39.3637 23.0635V22.342C39.3637 21.9021 39.7241 21.5426 40.164 21.5426H43.3625C43.8024 21.5426 44.1619 21.9021 44.1619 22.342L44.1614 23.0635Z" fill="#2D324F"/>
<path d="M38.4147 26.2053C38.4147 26.6452 38.0556 27.0043 37.6149 27.0043H34.4164C33.9769 27.0043 33.6166 26.6452 33.6166 26.2053V25.4838C33.6166 25.0434 33.9769 24.6835 34.4164 24.6835H37.6149C38.0556 24.6835 38.4147 25.0434 38.4147 25.4838V26.2053Z" fill="#2D324F"/>
<path d="M44.1614 26.2053C44.1614 26.6452 43.8019 27.0043 43.362 27.0043H40.164C39.7241 27.0043 39.3637 26.6452 39.3637 26.2053V25.4838C39.3637 25.0434 39.7241 24.6835 40.164 24.6835H43.3625C43.8024 24.6835 44.1619 25.0434 44.1619 25.4838L44.1614 26.2053Z" fill="#2D324F"/>
<path d="M38.4147 29.3462C38.4147 29.7861 38.0556 30.146 37.6149 30.146H34.4164C33.9769 30.146 33.6166 29.7861 33.6166 29.3462V28.6242C33.6166 28.1843 33.9769 27.8253 34.4164 27.8253H37.6149C38.0556 27.8253 38.4147 28.1843 38.4147 28.6242V29.3462Z" fill="#2D324F"/>
<path d="M44.1614 29.3462C44.1614 29.7861 43.8019 30.146 43.362 30.146H40.164C39.7241 30.146 39.3637 29.7861 39.3637 29.3462V28.6242C39.3637 28.1843 39.7241 27.8253 40.164 27.8253H43.3625C43.8024 27.8253 44.1619 28.1843 44.1619 28.6242L44.1614 29.3462Z" fill="#2D324F"/>
<path d="M23.4208 26.1383V22.1249H22.7512V21.5755C22.9398 21.5534 23.1193 21.4821 23.2898 21.3614C23.4606 21.2411 23.583 21.0949 23.6579 20.9223H24.2072V26.1383H23.4208Z" fill="#19746D"/>
<path d="M24.8639 22.3948C24.8639 21.9012 24.9971 21.524 25.2632 21.2636C25.4928 21.0335 25.7952 20.9184 26.1698 20.9184C26.5137 20.9184 26.807 21.0473 27.0492 21.3051C27.2924 21.5634 27.4135 21.864 27.4135 22.2079C27.4135 22.5626 27.3343 22.9052 27.1764 23.2353C27.0903 23.4182 26.8892 23.7327 26.573 24.1796C26.4873 24.3016 26.3597 24.4915 26.1902 24.7493L26.0491 24.9612C25.9574 25.0996 25.8882 25.2091 25.8411 25.2896C25.819 25.3311 25.8078 25.3557 25.8078 25.3648H27.3507V26.1339H24.8513V25.4128C24.8513 25.3964 24.9084 25.3004 25.0226 25.1256C25.0754 25.0451 25.1355 24.9565 25.2022 24.86L25.4072 24.565C25.5262 24.4015 25.7139 24.1398 25.9691 23.7794C26.2109 23.4412 26.3913 23.1349 26.5107 22.8606C26.608 22.6357 26.6565 22.4268 26.6565 22.2326C26.6565 22.0747 26.6119 21.9401 26.5232 21.8294C26.4259 21.7126 26.3013 21.6546 26.1491 21.6546C25.9297 21.6546 25.7749 21.7809 25.6832 22.0331C25.6529 22.1162 25.6378 22.2161 25.6378 22.3325V22.5323H24.8639V22.3948Z" fill="#19746D"/>
<path d="M27.9663 22.3948C27.9663 21.9012 28.0995 21.524 28.3656 21.2636C28.5953 21.0335 28.8976 20.9184 29.2722 20.9184C29.6161 20.9184 29.9094 21.0473 30.1517 21.3051C30.3948 21.5634 30.5159 21.864 30.5159 22.2079C30.5159 22.5626 30.4367 22.9052 30.2788 23.2353C30.1928 23.4182 29.9916 23.7327 29.6754 24.1796C29.5897 24.3016 29.4621 24.4915 29.2926 24.7493L29.1516 24.9612C29.0598 25.0996 28.9906 25.2091 28.9435 25.2896C28.9214 25.3311 28.9102 25.3557 28.9102 25.3648H30.4532V26.1339H27.9538V25.4128C27.9538 25.3964 28.0109 25.3004 28.1251 25.1256C28.1778 25.0451 28.238 24.9565 28.3046 24.86L28.5096 24.565C28.6286 24.4015 28.8163 24.1398 29.0715 23.7794C29.3133 23.4412 29.4937 23.1349 29.6131 22.8606C29.7104 22.6357 29.7589 22.4268 29.7589 22.2326C29.7589 22.0747 29.7143 21.9401 29.6257 21.8294C29.5283 21.7126 29.4037 21.6546 29.2515 21.6546C29.0322 21.6546 28.8773 21.7809 28.7856 22.0331C28.7553 22.1162 28.7402 22.2161 28.7402 22.3325V22.5323H27.9667L27.9663 22.3948Z" fill="#19746D"/>
<path d="M27.6042 27.9456V28.7354L26.502 33.1607H25.7308L26.833 28.7354H25.242V27.9456H27.6042Z" fill="#19746D"/>
<path d="M29.3306 27.8833C29.6745 27.8833 29.96 28.0079 30.1871 28.2574C30.4064 28.4962 30.5159 28.7873 30.5159 29.1312V31.9758C30.5159 32.3228 30.4026 32.6161 30.1772 32.8574C29.9514 33.0988 29.6689 33.2195 29.3306 33.2195C28.9837 33.2195 28.6982 33.0962 28.4741 32.8496C28.2548 32.6109 28.1454 32.3197 28.1454 31.9758V31.8634H28.9608V31.9927C28.9608 32.1199 28.9945 32.2267 29.0624 32.3128C29.1304 32.3985 29.2268 32.4417 29.3514 32.4417C29.4764 32.4417 29.5729 32.3985 29.6408 32.3128C29.7083 32.2267 29.7424 32.1199 29.7424 31.9927V30.9485C29.5595 31.1124 29.3609 31.1938 29.1477 31.1938C28.8038 31.1938 28.5455 31.0735 28.3738 30.8321C28.2211 30.6215 28.1454 30.3273 28.1454 29.9501V29.056H28.1497C28.1605 28.8146 28.2293 28.5979 28.3556 28.4054C28.4819 28.2125 28.6532 28.0693 28.8695 27.975C29.0101 27.9135 29.1641 27.8833 29.3306 27.8833ZM29.7424 29.139C29.7424 29.0119 29.7083 28.9041 29.6408 28.8168C29.5729 28.7298 29.4764 28.6857 29.3514 28.6857C29.2268 28.6857 29.1304 28.7298 29.0624 28.8168C28.9945 28.9041 28.9608 29.0119 28.9608 29.139V30.1041C28.9608 30.2568 29.0162 30.3827 29.1273 30.4826C29.1771 30.5293 29.2506 30.5531 29.3475 30.5531C29.5474 30.5531 29.6719 30.448 29.7217 30.2373C29.7355 30.1737 29.7429 30.1249 29.7429 30.0916L29.7424 29.139Z" fill="#19746D"/>
<path d="M30.483 37.2329C30.483 37.3765 30.4584 37.4937 30.4281 37.4937H22.3411C22.3104 37.4937 22.2853 37.3765 22.2853 37.2329C22.2853 37.0897 22.3104 36.972 22.3411 36.972H30.4276C30.4584 36.9725 30.483 37.0897 30.483 37.2329Z" fill="#136963"/>
<path d="M30.483 38.775C30.483 38.9191 30.4635 39.0363 30.4385 39.0363H23.9165C23.8915 39.0363 23.8716 38.9191 23.8716 38.775C23.8716 38.6318 23.8915 38.515 23.9165 38.515H30.4385C30.4635 38.515 30.483 38.6318 30.483 38.775Z" fill="#136963"/>
<path d="M30.483 35.6908C30.483 35.8339 30.4584 35.952 30.4281 35.952H22.3411C22.3104 35.952 22.2853 35.8344 22.2853 35.6908C22.2853 35.5476 22.3104 35.4312 22.3411 35.4312H30.4276C30.4584 35.4312 30.483 35.5476 30.483 35.6908Z" fill="#136963"/>
<path d="M38.9645 41.4565C40.7493 41.4565 42.1962 40.0096 42.1962 38.2248C42.1962 36.4399 40.7493 34.993 38.9645 34.993C37.1796 34.993 35.7327 36.4399 35.7327 38.2248C35.7327 40.0096 37.1796 41.4565 38.9645 41.4565Z" fill="#E0DCD3"/>
<path d="M38.9645 40.9565C40.4732 40.9565 41.6962 39.7334 41.6962 38.2248C41.6962 36.7161 40.4732 35.4931 38.9645 35.4931C37.4558 35.4931 36.2328 36.7161 36.2328 38.2248C36.2328 39.7334 37.4558 40.9565 38.9645 40.9565Z" fill="#F19C35"/>
<path d="M49.0352 54.6241C49.0352 55.2093 48.5611 55.683 47.9767 55.683H33.2766C32.6917 55.683 32.2176 55.2089 32.2176 54.6241C32.2176 54.0397 32.6922 53.5656 33.2766 53.5656H47.9767C48.5616 53.5656 49.0352 54.0401 49.0352 54.6241Z" fill="#449F98"/>
<path d="M49.409 54.6401C49.409 55.8011 48.4673 56.742 47.3071 56.742H46.6063C45.4453 56.742 44.5044 55.8007 44.5044 54.6401C44.5044 53.4791 45.4457 52.5382 46.6063 52.5382H47.3071C48.4673 52.5382 49.409 53.4795 49.409 54.6401Z" fill="#F4DDC0"/>
<path d="M40.5174 59.6077C44.3358 59.6077 47.4312 57.3209 47.4312 54.4999C47.4312 51.6789 44.3358 49.3921 40.5174 49.3921C36.699 49.3921 33.6036 51.6789 33.6036 54.4999C33.6036 57.3209 36.699 59.6077 40.5174 59.6077Z" fill="#353B5A"/>
</svg>
